<svg xmlns="http://www.w3.org/2000/svg" width="60" height="60" viewBox="-260.4 -21.7 42.2 64">
  <path fill="#149080" d="M-244.2 18.3c-.3 1-.3 2.2 0 3.6.5 2.6 1.7 6 2.4 9.6h5c.7-3.6 2-7 2.5-9.7.3-1.5.3-2.8 0-3.7-.2-1-1-1.6-2-2.3h-6c-1 .7-1.7 1.4-2 2.3zM-232.4 38.3h-13.8c-1.3 0-2.3 1-2.3 2.2v2.2H-230v-2.2c0-1.2-1-2.2-2.4-2.2zM-225.3-17.4H-237c0-1.3-1-2.3-2.3-2.3-1.3 0-2.3 1-2.3 2.3h-11.7l-6 25.5c.7-.4 1.5-1 2.5-1 1.4 0 2.3 1 3 1.5.6.5 1 .8 1.4.8.3 0 .8-.3 1.5-.8.7-.6 1.6-1.4 3-1.4 1.3 0 2.2 1 3 1.5.6.5 1 .8 1.3.8.2 0 .4 0 .6-.2.2 0 .4-.3.8-.5.5-.4 1-1 2-1.3h1c1.3 0 2 .7 2.8 1.3.7.5 1.2.8 1.5.8.4 0 .8-.3 1.5-.8.7-.6 1.6-1.4 3-1.4 1.3 0 2.2 1 3 1.5l.7.6.6.3c.3 0 .8-.3 1.5-1 .6-.4 1.5-1.2 3-1.2 1 0 1.7.6 2.5 1l-6-25.4zM-236 33.8h-6.7c-.7 0-1.2.5-1.2 1 0 .8.6 1.2 1.3 1.2h7c.5 0 1-.4 1-1 0-.7-.5-1.2-1-1.2h-.2zM-239.3 9.3l-.6.2-.4.5v3.7h2.3V10c-.7-.4-1-.7-1.3-.7z"/>
</svg>
