<svg xmlns="http://www.w3.org/2000/svg" width="54" height="37" viewBox="8 4.3 32 37">
  <path fill="#63d1bb" d="M24 41.6c8.8 0 16-7 16-16-8.8 0-16 7.2-16 16zM12.6 20.8c0 2.4 2 4.4 4.5 4.4 1 0 2-.3 2.6-.8v.4c0 2.4 2 4.4 4.4 4.4s4.4-2 4.4-4.4v-.4c.7.5 1.6.8 2.5.8 2.4 0 4.4-2 4.4-4.4 0-1.8-1-3.3-2.6-4 1.5-.7 2.6-2.2 2.6-4 0-2.5-2-4.5-4.5-4.5-1 0-2 .3-2.6.8V9c0-2.5-2-4.5-4.4-4.5s-4.4 2-4.4 4.5V9c-.7-.4-1.6-.7-2.5-.7-2.4 0-4.4 2-4.4 4.5 0 1.8 1 3.3 2.6 4-1.5.7-2.6 2.2-2.6 4zM24 12.3c2.5 0 4.4 2 4.4 4.5 0 2.4-2 4.4-4.4 4.4s-4.4-2-4.4-4.4c0-2.5 2-4.5 4.4-4.5zM8 25.7c0 8.8 7.2 16 16 16 0-9-7.2-16-16-16z"/>
</svg>
