<svg xmlns="http://www.w3.org/2000/svg" width="23.5" height="20.2" viewBox="52.3 53.8 23.5 20.2">
  <path d="M75.7 58c-.2-.5-1-.4-1.4-.5h-1c0-.4.2-.7.4-1 0-.4.3-.7.2-1.2 0-.2 0-.5.2-.6 0-.2.3-.5 0-.7 0-.2-.2-.2-.5-.2h-.2l-1.3 1.5-.5.3c-.3.2-.5.5-1 .6-.4-.3-1-.4-1.7-.4-1.2 0-2.3.2-3 .7-1 .4-1.6 1-2.2 1.7 0 .3-.4.3-.4.7v1c-1 0-1.6-.6-2.3-1l-2-1c-.7-.4-1.2-1-1.7-1.4-.2-.3-.6-.5-.7-1-.4 0-.2-.8-.7-.8-.5 0-.5.2-.6.4 0 .2-.4.2-.4.5-.2 1.2-.6 2-.6 3.3l.6 1c-.4 0-.7.3-1 .6 0 1 .5 1.6 1 2.3 0 .3.2.6.5 1 0 0 .2 0 .3.3v.2s.4.2.2.2c-.4.2-1 0-1.3.4v1.2c0 .3.3.3.3.5.5.5 1 .8 1.7 1.2.5 0 1.2 0 1.8.2 0 .4-.3.6-.6.8-1 .4-2 .4-2.8.7l-1.6.2c-.3 0-.8 0-1 .2-.2 0-.2 0-.3.2 0 .4 0 .7.4 1 0 0 .3 0 .4.2l.6.4c.5.5 1.2.8 2 1 .7.3 1.5.5 2.4.6l2.8.3h2.8c0-.2.4 0 .6 0 .5-.4 1-.5 1.6-1 .6 0 1-.5 1.5-.8 1-.7 2-1.3 2.6-2.3l.3-1c.3 0 .4-.3.6-.5l1-1.4.8-1.5c0-.4.3-.5.3-1 .3 0 .3-.6.5-.8V63c0-1 0-2.3-.2-3.3.6 0 1-.3 1.6-.6.4 0 1-.5.7-1zm-3.4 4c-.2.8-.6 1.3-1 2v.8c-.3.3-.4.7-.5 1l-.5 1-1.2 1.5c-.3.6-.8 1-1.2 1.5L66.4 71 65 72l-.6.3c0 .2-.5.2-.6.4h-3.6c-1 0-2 0-3-.2s-1.5-.8-2.3-1c0-.3.5-.2.8-.3 0-.3.4 0 .5-.3h.5c.6-.2 1.2-.3 1.7-.6.3 0 .4-.4.7-.5 0-.2 0-.4.2-.5l.2-.8c0-.2.3-.3.2-.6 0-.2 0-.4-.2-.4 0-.2-.4 0-.5-.2h-.5c0-.2-.5 0-.5-.2-.8 0-1.3-.4-2-.7.6-.2 1.2-.3 1.5-.7.5 0 1 0 1-.6 0-.7-.7-.7-1.2-.8-.8-.8-1.2-1.8-1.8-2.7l.7-.4c.5 0 .6-.4.7-.6 0-.5-.4-.6-.7-.8l-.7-.8v-2.4h.2c.2.6.5 1 .8 1.3.5.4 1 1 1.5 1 .6.5 1.3.7 1.7 1.2.6 0 1.2.4 1.7.7.7.2 1 .7 2 .6l.6-.3c.3-.4 0-1 0-1.6.4-.6 1-1 1.4-1.5l.8-.6c.4 0 .7-.2 1-.4h3c.2.2.4.4.7.4.7.7 1.2 1.7 1.3 3V62zm.3-5.7c0 .3-.2.7-.6.8-.2-.3 0-.3 0-.4.3 0 .4-.3.6-.3zm-5.5 3l.6.4c0 .2.3.3.6.4h.4l.3-.4c0-.6-.2-1-.5-1.4-.7-.4-1.7 0-1.4 1z"/>
</svg>
