<svg xmlns="http://www.w3.org/2000/svg" width="15" height="27.7" viewBox="56.5 50 15 27.7">
  <path d="M68.2 55.2c1 0 2 0 2.7-.3.3-1 .4-2 .5-3-.2 0 0-.4-.2-.5 0-.2-.3-.2-.3-.4-.3 0-.5-.3-.8-.5l-2-.5h-2.7c-2.6 0-4 1.2-5.3 2.5v.2c-.6 1.6-.2 3.6-.3 5.6v1.4c-1 .3-2 .4-3.3.5-.3.3 0 1-.2 1.7 0 .4.3 1 .4 1.5l.8.5c.6.3 1.5 0 2.3.2 0 2 .4 4 0 5.6 0 .4.4.4.3.8 0 1 0 2 .3 2.7-.3.5-.5 1-.5 1.8.3 0 .3.3.2.4 0 .5.7.2.6.7 0 .6-.5.3-.5.6v1c.6.2 1.5 0 2.3 0 1-.3 2.2-.4 2.8-1 .5 0 1 0 1.2-.3 0-.3.3-.3.2-.7v-3.8c-.3-2.3 0-5-.4-7 1-.3 2-.2 2.6-.5.4-.5.4-1.3.5-2 .2-.2.2-.5.2-1 .2 0 0-.7 0-1 0-.6 0-1.3-.7-1.4-1-.4-2 .5-3 .2 0-1.2-.3-2.4 0-3.4l2.2-.6zM64.4 60l.4.7h.2c1.2 0 2.2 0 3-.2 0 1-.2 1.7-.4 2.5-.7 0-1.5.3-2 .2-.3 0-.4.5-.6.7v.7c-.2 0 0 .6-.2.8V67c0 .2-.2.2 0 .4V71c-.2.2 0 .2 0 .4v3c0 .3-.2.8 0 1 0 .3-.3 0-.7 0-.5 0-1 .4-1.5.4 0-.3.3-.6.3-1 0-.5-.3-.4-.5-.6.2-.6.6-1 .7-1.8.2-.5.7-1.3.3-1.8-.5 0-.5.3-.8.4v.2s0 .2-.2.2c0 .2 0 0 0 0v-.2s0-.2.2-.2v-.3c.4-.5.7-1.2.8-2 .2-.2.3-.6.4-1 .2-.2.4-.8.2-1-.7 0-1 .2-1 .6-.4-.2 0-.5 0-.7l.3-.8c.2-.5.6-1.3 0-1.6-.4 0-.6.2-.7.5-.2.2-.4.3-.5.7-.3 0 0-.8 0-1-.2-.7 0-1 0-1.3-.7-.7-2 0-3.3-.2 0-.3-.2-1 0-1.2 1 0 2.4.2 3-.2 0 0 0-.2.2-.2 0-.7-.4-1-.6-1.4.2-.8 0-2 0-3l.6-.6c0-1 .7-1.5.7-2.5-.3 0-.6 0-.6.2-.2-.2-.3.4-.4 0 0-.4.2-.5.3-1l1.7-1c1.8-.3 4.7-.5 6 0 .2.7-.2 1 0 1.6H68c-1 .2-2 .7-3 1-.2 0-.2.3-.4.4 0 .4-.3.6-.3 1v4z"/>
</svg>
