<svg xmlns="http://www.w3.org/2000/svg" width="60" height="60" viewBox="226 226.2 60 59.6">
  <path fill="#149080" d="M226 270l27.4 15.8v-23.3l-27.4-16V270zm51.3-31.4v2.5c0 2-3.4 3.4-7.7 3.4-4.2 0-7.7-1.5-7.7-3.3v-4c.2 1.7 3.5 3 7.6 3 4.3 0 7.7-1.4 7.7-3.2 0-1.8-3.4-3.3-7.7-3.3h-1l-5-2.8v3c0 2-3.4 3.3-7.7 3.3-2.8 0-5-.5-6.5-1.4l-.7-.6c-.4-.4-.6-.8-.6-1.3v-3l-4.8 3c-.4-.2-.7-.2-1-.2-4.3 0-7.8 1.5-7.8 3.3 0 1.8 3.5 3.3 7.7 3.3 4 0 7.5-1.3 7.7-3v4c0 2-3.4 3.4-7.7 3.4-4.2 0-7.7-1.5-7.7-3.3v-2.3l-6 3.4 27.6 16 27.3-15.8-6.2-3.6zm-13.6 10.2c0 1.8-3.5 3.3-7.7 3.3-4.3 0-7.8-1.4-7.8-3.2v-4c.3 1.6 3.7 3 7.8 3 4 0 7.4-1.4 7.7-3v4zm-5 14v23l27.3-16v-23l-27.4 16zm-2.8-30c4.2 0 7.6-1.5 7.6-3.3 0-1.8-3.4-3.3-7.7-3.3-4.4 0-7.8 1.5-7.8 3.3 0 1.8 3.4 3.3 7.7 3.3"/>
</svg>
