<svg xmlns="http://www.w3.org/2000/svg" width="54" height="37" viewBox="239.7 239.8 32.7 37">
  <path fill="#63d1bb" d="M242.6 272.2H255v-14h-12.4v14zm28-23.6h-7.2l1.4-.8c1.6-1.2 2.4-2.6 2.4-4 0-1.2-.5-2.2-1.3-3-1-.6-2-1-3.2-1-1.2 0-2.3.4-3.3 1-1.4 1-2.6 2.5-3.4 4v.3l-1-1.7c-.7-1-1.6-1.8-2.5-2.5-1-.6-2.2-1-3.4-1-1 0-2.2.5-3 1.3-1 .8-1.4 2-1.4 3.2 0 .7.2 1.5.6 2.2.6.8 1.4 1.6 2.6 2.2h-6.5c-1 0-1.6.7-1.6 1.6v6H255v-7.6h2v7.5h15.3v-5.8c0-1-.7-1.6-1.6-1.6m-22.3-2.3c-.6-.4-1-.8-1.2-1.2-.3-.2-.3-.5-.3-.8 0-.5 0-1 .6-1.5.4-.4 1-.6 1.5-.6.8 0 1.5.3 2.2.7 1 .7 2 2 2.6 3.2.4.6.6 1.3.8 2-3-.3-5-1-6.2-1.7m10.5-1.6c.5-.8 1-1.5 1.8-2 .7-.4 1.4-.6 2-.6.6 0 1.2.3 1.6.6.3.3.5.7.5 1.2s-.3 1.2-1.5 2c-1.2 1-3 1.8-6.2 2.4.3-1.2 1-2.5 1.6-3.5m-2 27.5h12.4v-14H257v14z"/>
</svg>
