<svg xmlns="http://www.w3.org/2000/svg" width="21.8" height="21.3" viewBox="53.1 53.2 21.8 21.3">
  <path d="M75 65.3c0-2.4-.5-4.8-.4-7 0-1 0-1.6-.2-2.4v-1c-.4-.3-.3-.8-.6-1-.4-.2-1.2 0-1.7-.2h-1.8c-2-.2-4-.2-6-.2s-4-.2-5.7-.4h-2.2-.2c-.5 0-1 .3-1.5.4l-.7.3c-.2 0-.5 0-.6.3-.2.2.2.4 0 .6v2.6c0 1.3.2 2.4 0 3.7.6 2.8.5 6.6.2 9.4.2.6.4 1 .5 1.8 0 .5.2 1 .5 1.5.5.2 1.3.2 2 .2.3 0 .6.3 1 .3 3-.2 5.6 0 8.5-.2 2.7.2 5.8.2 8.3-.2.2 0 0-.5.2-.7 0-.4.2-.4.2-.7.2-2.4.2-4.8.2-7.3zM62 59l2.3-.2c.7 0 1.3.3 2 .5 0 0-.3.5 0 .6h.2c.5 0 .8.3 1 .5.5 0 .6.5 1.2.3v.8c.3 1.2.4 2.8.3 4.3-.2 0-.3.3-.3.5-.4.4-.5.8-1 1 0 .3 0 .5-.3.6-.2.4-.2.6-.5.7h-1c-.4 0-.8.2-1 .5-1 0-1.8-.2-2.6-.3-.2-.2-.5-.4-.8-.4l-.8-.5h-.5c-.2 0-.2-.3-.5-.3 0-.4-.4-.6-.5-1l-.4-1.3c-.2-1.4 0-2.7.2-3.8l1.2-1.7c.2 0 .3-.2.4-.4h.6c.3 0 .3-.3.5-.5zM60 56.5v-1c0-.4.2-.4.3-.6h-.2c0-.2.7-.2.8 0 .3.4-.2.4-.4.6 0 .2.3 0 .5 0v2.3h-.4c0 .2.2.2.5.2 0 .2.2.3 0 .5 0 .2-.6 0-1 0 0-.5.3-1.3.2-2zm-.7-1.6h.2c.2.3 0 .7 0 1-.3-.2 0-.7-.2-1zm.2 1.8l-.2-.4c.2 0 .2.2.2.4zm0 1.4v-.2.2zm-.2.2c.2 0 0 .2.3.2 0 .2-.3.2-.4 0v-.2zM57.2 57v-.2c-.2-.8 0-1.5 0-2 .2-.2.7 0 1 0v1H58c-.2.4.2.3.3.4v2.5H57c0-.6 0-1.4.5-1.6h-.3zm-.5 0c-.2 0-.3-.5 0-.6.2 0 0 .5 0 .6zm-.2 1v-.7c.3 0 .3.8 0 .7zm.2-2c-.2 0-.2-.3 0-.5 0 0 .2.3 0 .4zm0-1.2v.3h-.3c0-.2.2-.2.3-.2zm-.2 3.7c.2 0 0 .4 0 .2v-.2zm-.7-3.7c0 .2-.4.3-.4 0h.4zm-1 0c0 .3-.3.2-.3.4-.3 0 0-.4.3-.3zm-.4.8l.7-.6v-.2h.4c0 .4-.3.3-.3.5v1.2c-.2 0-.2.3-.5.3 0-.5-.2-.7 0-1.2zm0 3.3v-1.7l.7-.5c.4.4.2 1.3.5 2h-1zm18.3 11c0 1-.2 2-.4 2.8h-9c0 .2-.2 0 0 0h-.6c.2-.2.4-.8 0-1.2-.7 0-.7 1-1 1.3h-2c.3-.7 1-1 1-1.7-.3-.6-1 0-1.2.4l-.7 1.3h-1l.8-1.4c0-.5.6-.7.6-1.3 0-.3-.4 0-.6 0l-.4.5-.7 1c-.2.4-.3 0-.5.4-.4.2-.6.7-1 1-.2 0 0-.4 0-.4.2-.2 0-.6.2-.6 0-.4.2-.7.4-1 0-.7.5-1 .7-1.8-.6 0-.7.6-1 1-.2.4-.6.7-.7 1.2-.2 0 0-.5 0-.8 0-.6.2-1 .3-1.7v-.8c.3-.2.2-.6 0-.7-.2 0-.3 0-.4.3-.2 0-.2.5-.3.3 0-2.5-.5-4.7-.5-7.4 0-.3 0-.4-.2-.7 1.6 0 3 0 4.8.2l-.3.4-.3.3c-.6 1.5-1 3.8-.6 6l1 1.5c1 .4 1.7 1 2.6 1.6 1.7.5 3.8.5 5.5 0 .4 0 .6 0 .8-.3 1.4-1.2 2.8-2.4 3-4.8v-1.5c-.2-1.6-.7-3-1.8-3.6.4-.3 1 0 1.7 0H72.8c.2 0 0 .5.3.7v6.5c0 1 0 2-.3 2.8zm.4-11.2c-.6 0-1.2-.3-1.8-.4 0-.3.8 0 1-.2.3-.2.2-1 .3-1.5v-1c-.4-1-1.8-.5-3-.5 0 .7-.3 1.8-.2 2.6.2.5 1 .3 1.6.5-.3.3-.8 0-1 0h-7.6v-3.6h3c-.4.4-1 .5-1.3 1-.3 0-.8.4-1 .8l.7-.4c.4 0 .5-.3 1-.4.3-.4 1-.6 1.5-1 .4 0 .7 0 1 .2H71c.6.2 1.5 0 2 .4l.3 1-.2 2.6zM67.3 55zm0 0c-.5.2-1 .4-1.4.8.5-.2 1-.3 1.4-.7zm1 .7c.2 0 0 0 0 0zm-1.7 1c.8-.3 1.2-.7 1.8-1-.5 0-.6.3-1 .4-.2.3-.6.3-.8.6zm-.7-1s0 .2 0 0zm-.6.7zm0 0zm-.2 0zm-.8.7c.3 0 .6-.2.8-.5l-.8.6zm2.3 1c.5 0 .7-.3 1.2-.4.3-.3.8-.4 1-.8-.6 0-.8.4-1.3.6-.2.3-.7.4-1 .7zm-2.3-1c-.3 0 0 .4 0 0zm-.6.5s.2 0 0 0zm3 .6c-.3.2 0 .2 0 0zm-1.3 2c-.2-.3-.7-.3-1-.4-.7 0-1.2 0-1.7.2-.3 0-.6.3-1 .5-.2 0-.4.4-.7.5-.3.2-.4.5-.8.6 0 .2 0 .3-.3.4-.2 0-.2.3-.3.3v.5c0 1.5.2 3 .6 4 .3.8 1 1 1.4 1.4.6.2 1.4.4 2.2.4h.8c1.2-.2 2-.8 2.8-1.5 0-.3.2-.6.4-.8-.2-.6.3-1 .5-1.5 0-1.4-.2-2.5-.6-3.5-.4-.5-1-.7-1.5-1V60c-.4 0-1-.2-1.2 0zM62 64.2c-.2 0-.2-.3-.3-.4.3-.2.2 0 .2.3zm0 .3c0 .2 0 0 0 0zm.4-2c0-.2 0 0 0 0zm1.7-2.2c0 .3 0 .6.2.8-.3 0-.6-.8 0-.8zm.5 4zm.7 2.8h0zm2.2-2.5c-.2 0 0 .2-.3 0l.3-.3s.2 0 0 .3zm-1-3.8s.3 0 .5.2c0 .3.2.4.3.6 0 .7.2 1.5 0 2.3 0 .2-.3.4-.5.5-.8 0-1.4-.2-2-.5 0-.2-.3-.5-.5-.7v-1l.5-.7c.2 0 .5-.2.4-.6v-.2s.2 0 .3.2c.4 0 .5-.2.8 0z"/>
</svg>
