<svg xmlns="http://www.w3.org/2000/svg" width="54" height="37" viewBox="0 0 34.4 37">
  <path fill="#63d1bb" d="M.3 14c-.4 2-.4 4.3 0 6.4l4-3.2-4-3zM24.4 1.6C19.6-.6 14-.6 9 2l7.7 5.6 7.7-6zM34 13.2L29 17l5 3.6c.5-2.4.5-5 0-7.4zM9.2 32.4c5 2.5 10.7 2.7 15.7 0l-8.2-6-7.6 6zM8 14.4L1.6 9.8l-.8 2 5.2 4L8 14.4zM18.6 25l8.3 6.3c.2 0 .5-.3.7-.6l1-.7-8.4-6.3-1.7 1.4zM11.4 11.7L4 6.2c-.5.5-1 1-1.3 1.7l7 5 1.7-1.3zM22 22.4l8.2 6c.5-.5 1-1 1.3-1.7L23.8 21 22 22.4zM15 9L7 3.2c-.2 0-.4.3-.6.4l-1 1 7.6 5.7L15 9zM25.6 19.6l7 5.3.8-2.2-6-4.5-1.8 1.3zM26.4 2.7L1 22.7c0 .6.4 1.3.7 2L28.2 4c-.5-.5-1-1-1.8-1.3zM30.7 6.6l-1-1-27 21c.3.4.6.8 1 1 0 .3.2.5.4.7l27.2-21-.5-.7zM32.3 9L5.6 29.8c.5.5 1 1 1.7 1.4l26-20.2-1-2z"/>
</svg>
