<svg xmlns="http://www.w3.org/2000/svg" width="66" height="100.8" viewBox="0 0 66 100.8">
  <path fill="#FFF" d="M56.3 9.2C43.3-3 22.6-3 9.7 9.2c-13 12.3-13 32.3 0 44.6 0 0 23.3 21.8 23.3 47 0-25.2 23.3-47 23.3-47 13-12.3 13-32.3 0-44.6z"/>
  <path fill="#6BC6B3" d="M47 45.5c-.6-3.3.2-7 0-10.3 0-3.7-.6-7.4-.6-11.2 0-3 .5-6.2-.5-9v-1c.4-1.6-4.5-.8-5.2.6-.5.3-.8.8-.6 1.3l.2.3c-1 4.4-2.2 8.8-3.7 13l-1.8 5c-1-1.5-1.8-3-2.4-4.6-2-5-3.7-9.7-6-14.3.3-2.2-4.5-2-5.4 0-1.2 2.4-1 4.8-.6 7.3.4 3 .4 5.7.5 8.6 0 5.5.6 11 .7 16.6-.5.5-.7 1.2-.2 2l.8.6c1.3 1 5 .2 5-1.7 0-6-.5-11.7-.7-17.4V30l.2.5 3 6.5c1.3 2 2 4.3 2.6 6.5-.2.3-.4.7-.3 1 0 .3.2.4.5.5.8.8 2.5.4 3.5 0 .4 0 .8-.3 1-.6.6-.3 1.4-1 1-1.6v-.4c.7-1.8 1-3.6 1.4-5.5.4-2 1-4 1.8-6 0 1 0 2 .2 2.7.3 3.6 0 7 0 10.7 0 1.2 0 2.3.3 3.4 0 .5.5 2.6.4 2.7-.7.8-.5 1.7.7 2 1.2.3 3 0 3.8-1 1.7-1.6 1-4 .5-6z"/>
</svg>
