<svg xmlns="http://www.w3.org/2000/svg" width="101.6" height="34.1" viewBox="0 0 101.6 34.1">
  <path d="M19 21.5c0-2.7-.4-5.4-.3-8 0-2.2.3-4.4-.4-6.5v-.7c.3-1-3-.5-3.7.4-.3.3-.5.6-.3 1V8c-.6 3-1.5 6.2-2.6 9.3-.4 1.2-1 2.4-1.3 3.6l-1.6-3.5c-1.4-3.4-2.6-7-4.3-10.2.2-1.5-3.2-1.4-4 0C0 9 0 10.7.3 12.5c.3 2 .3 4 .4 6.2 0 4 .3 8 .4 12-.4.3-.5.8 0 1.2 0 .2.3.3.5.5 1 .7 3.5 0 3.5-1.3 0-4-.3-8.2-.5-12.3v-1.3l.2.4c.6 1.7 1.3 3.3 2.2 4.7.7 1.5 1.2 3 1.7 4.7-.2.2-.3.5-.3.7 0 .3 0 .4.3.5.6.5 1.8.3 2.5 0 .3 0 .6-.3.8-.4.4-.2 1-.6.8-1v-.4l.8-4c.3-1.3.8-2.7 1.3-4v1.8c.3 2.6 0 5 0 7.6 0 1 .2 1.7.3 2.5 0 .3.4 1.8.3 2-.6.5-.4 1 .4 1.3 1 .2 2 0 2.8-.7 1.2-1 .6-2.8.3-4.2-.3-2.3.2-5 0-7.3zM27.5 22.2c0-2-.8-4-.8-6 0-2.2.2-4.5 0-6.8-.2-.7-4.2 0-4 1 .3 2.2 0 4.3 0 6.4 0 2 .6 4 .8 6 .3 2 0 4 .2 6 0 1 .7 3 0 3.7-.3.5 1.5.4 1.6.3.8 0 1.8-.4 2.3-1 .7-.8.2-2.4 0-3.4-.2-2 0-4.2 0-6.2zM43.8 19c-2-3-6-1-8.5-1.7C34 17 34 15 34 14c0-1.5-.2-2.8-.4-4.2 0-1 0-2.2.7-3l1-.3h1c1.5 0 4.5.2 4 2.4-.3 1 3.5.3 3.8-.7 1.3-4.6-7.2-3.7-9.6-3-2.2.5-4.6 1.7-4.7 4.3l.3 3.6c0 1.4-.2 2.8.3 4 1 3 5.5 1.7 7.8 2 4 0 2.7 5.3 2.8 7.7 0 1.2 1.2 3.4.2 4.4-.6.7-2 .7-2.8.8-.8 0-2.2.3-2.7-.5-1-1.4 0-3.8 0-5.4-.3-1-4.2 0-4 1 .3 2.7-1.5 6.2 2.3 6.7 2.5.3 5.2-.2 7.5-1 1.2-.4 2.3-1 3.3-1.8 1-1 .7-2.3.4-3.5-.7-3 .7-6.3-1.2-8.8zM61.2 18.7c-.2-3.8-.7-7.6-.8-11.3 0-2-4-1.3-4 .3 0 3.6.6 7.2.8 10.8v.2l-6 .2c.3-4.7-.5-9.3-.3-14 0-.5-4 0-4 1-.2 4.6.6 9 .4 13.5l-.2 6.4c0 1 0 2 .3 3.2.2 1 .5 2.3.2 3.3-.3.8 3.5.3 3.8-.7.6-1.8-.2-4-.4-5.8 0-1.8 0-3.5.2-5.3 2 0 4-.3 6 0l.4 4 .2 3.6c0 1 .2 2.5-.2 3.5-.8 2 3.2 2 3.7.3.7-1.7.5-4 .4-6 0-2.5-.5-5-.5-7.3zM78 23c-1-2.6-2.3-5-3.5-7.7l3-5.8c.7-2 1.3-4 3-5 .6-.6.5-1-.3-1-.8-.2-2 0-2.7.6C76 5.4 75 6.8 74.3 8.5l-3 6c0 .2 0 .4-.2.5-.4.3-.7.7-.5 1.2L68 20.8c-.3-5.5-1-11-1.2-16.6 0-1.3-4-.5-4 1 .4 7 1.3 13.8 1.4 20.6-.3.4-.2.6 0 .7 0 1.8 0 3.5-.2 5.3-.5.7.5 1 1 1h.2c.7 0 2.6-.3 2.7-1.3v-6.3c1.7-1.7 3-3.6 4.2-5.6.7 1.5 1.5 3 2 4.6.8 2.7 2.3 5.2 3 8 .6 1.8 4.6.7 4-1-.8-2.8-2.2-5.3-3-8zM101.6 18.5c-.2-.8-1.4-.8-2.3-.8v-1c0-2.6-.2-5.4-.4-8-.3-2.5-1.7-3.3-4-3.3-2.5 0-5.3.6-7.6 1.4-2.6 1-4 3-4.5 5.7-.7 3 0 6.2.3 9.3v10.5c0 .6 4 0 4-1v-8.4c0-1 0-1.7-.2-2.5 1.5-.6 3.8 0 5.2 0 1 .2 2 0 3.2-.2 0 2.3 0 4.7.2 7 0 1.2.5 3.5-.3 4.5-.5.5 1.5.3 1.5.3.8 0 1.8-.3 2.3-1 1-1 .6-3.7.5-5V20c1 0 2.3-.8 2-1.7zm-14.6 0c0-1.4-.2-2.6-.3-4-.2-2.2 0-5.5 2.3-7 .5-.3 1.6-.2 2.3-.3 1-.2 2-.4 2.8.2 1.4.8 1 3.6 1 4.8 0 2 .3 4 .4 6h-1.7c-2.3 0-4.6-.3-6.7.2zM24 6.7c.6 0 1.2-.2 1.6-.5l.2-.2c.6-.4 1-1 .8-1.4-.5-1-.5-2.2-.4-3.4 0-1-1-1.3-1.8-1.2-.8 0-2.2.6-2.2 1.5v3.9l.2.4c0 .2.2.3.4.5.4.2 1 .2 1.3.2z"/>
</svg>
