<svg xmlns="http://www.w3.org/2000/svg" width="32" height="24.3" viewBox="0 0 24.8 24.3">
  <path d="M17.3 24.3h-1c-5-.5-8.6-2.8-11.2-5.7C2.7 15.6.6 12 0 6.8V5.5c0-1 .5-1.6 1-2 .7-.8 1.7-1.6 2.6-1.7.6 0 1.8.5 2.2 1 .4.6.6 1.7.8 2.5.2.8.6 2 .5 2.7 0 1.2-1.6 1.7-2 2.6 1.6 3.7 4 6.4 7.5 8.3 1-.7 1.6-2 2.8-2l1.5.2 1.3.5c.8.3 2 .7 2.5 1.2.4.6.7 1.6.6 2.2 0 1.2-2.2 2.6-3.4 3zM12.5 1.5c6 0 10.8 4.8 10.8 10.8h1.5C24.8 5.5 19.3 0 12.5 0v1.5zm0 7.8V11c.8 0 1.4.5 1.4 1.3h1.4c0-1.6-1.3-3-3-3zm0-3c3.4 0 6 2.7 6 6h1.7c0-4-3.4-7.6-7.7-7.6v1.5z"/>
</svg>
