<svg xmlns="http://www.w3.org/2000/svg" width="100.7" height="76.9" viewBox="247.3 382.6 100.7 76.9">
  <path fill="#63D1BB" d="M344.3 400.7s-1-7-3.8-10c-3.7-4-7.7-4-9.6-4.4-13.4-1-33.4-1-33.4-1s-20 0-33.3 1c-2 .3-6 .3-9.6 4.3-2.8 3-3.8 10-3.8 10s-1 8.3-1 16.5v7.8c0 8.2 1 16.5 1 16.5s1 7 3.8 10c3.6 4 8.3 4 10.5 4.4 7.6.7 32.3 1 32.3 1s20 0 33.4-1c1.8-.3 6-.3 9.5-4.3 2.8-3 3.8-10 3.8-10s1-8.3 1-16.5V417c0-8.3-1-16.5-1-16.5z"/>
  <path fill="#FFF" d="M297.6 459.4c-1 0-25-.2-32.6-1h-.3c-.3 0-.7 0-1-.2-2.6-.3-7.3-1-11-5-3.3-3.6-4.3-10.8-4.4-11.6 0-.4-1-8.5-1-16.8V417c0-8 1-16.2 1-16.6 0-1 1-8 4.4-11.6 4-4.5 8.5-5 10.7-5 .2-.2.4-.2.5-.2 13.3-1 33.4-1 33.6-1 .2 0 20.3 0 33.5 1h.8c2.2.3 6.7.7 10.7 5.2 3.4 3.6 4.4 10.7 4.5 11.5 0 .4 1 8.6 1 16.8v8c0 8-1 16.2-1 16.6 0 .8-1.2 8-4.5 11.6-4 4.4-8.5 5-10.7 5l-.5.2c-13.4 1-33.5 1-33.7 1zm-32-6.4c7.5.7 31.3 1 32 1 .7 0 20.2 0 33-1h.7c1.8-.3 4.6-.6 7.2-3.5 1.8-2 2.8-7 3-8.6 0-.6 1-8.4 1-16V417c0-7.8-1-15.7-1-16.2-.3-2.3-1.4-6.7-3-8.5-2.7-3-5.4-3.2-7.3-3.4h-.5c-13-1-33-1-33-1-.3 0-20 0-33.2 1h-.5c-2 .3-4.6.6-7.2 3.5-2 2-3 7-3 8.5-.2.6-1 8.4-1 16v7.8c0 7.8 1 15.6 1 16 .2 2.5 1.4 7 3 8.7 2.4 2.6 5.3 3 7.5 3.3.5 0 1 0 1.4.2z"/>
  <g>
    <path fill="#FFF" d="M285.7 403V439l29.8-17.8"/>
  </g>
</svg>
