<svg class="header__logo-icon header__logo-icon--desktop" xmlns="http://www.w3.org/2000/svg" width="148.051" height="72.707" viewBox="0 0 148.051 72.707">
  <path d="M143.165 31.397c-1.48 1.055-3.053 1.942-4.657 2.777.037-1.747-.12-3.465-.59-5.127.05-.333.1-.667.144-1.002.375-3.005.657-7.122-2.003-9.224-.34-.26-1.25-.03-1.93.28-.16-.15-.32-.29-.5-.41-.08-.24-.16-.48-.23-.73-.04-.12-.17-.19-.36-.21.28-.38.26-.81-.42-1.09-.38-.15-.76-.29-1.14-.41-.07-.07-.13-.09-.18-.06l-.01.01c-.94-.3-1.9-.53-2.86-.7.14-.33.39-.81.55-1 .13-.15.28-.3.43-.44l.18-.16c.03-.02.05-.04.07-.06l.08-.06c.38-.29.84-.86.22-1.2-.57-.31-1.51-.14-2.01.24-.87.66-1.63 1.38-2.1 2.36-2.01-.17-4.05-.15-6.08-.07.06-.08.11-.16.14-.25.18-.59-.91-.53-1.19-.49-1.56.2-3.13.41-4.69.6 1.36-3.77 3.08-8.58 1-12.26-1.17-2.13-3.89-2.6-6.08-2.67-2.44-.08-4.9.46-7.04 1.64-4.76 2.62-7.11 7.71-8.21 13.14-.5-.65-2.3-.42-2.65.47-.13.32-.23.65-.33.97-.16.18-.28.39-.35.64l-.04.17-.2.01.06-.31c.15-.11.25-.23.28-.36.58-2.29 1.16-4.58 1.95-6.82.27-.75-2.51-.4-2.8.43-.43 1.2-.79 2.41-1.12 3.62-.17.08-.36.19-.43.33-.02.04-.04.07-.05.11-.11-.09-.27-.15-.47-.18v-.96c0-.43-2.82-.03-2.82.76v1.57c-.17.07-.33.16-.48.27l-.19.17c-.07.07-.11.16-.12.25-.01.03-.01.05-.02.08-.02.02-.03.05-.05.07-.13.13-.19.34-.03.47.19.16.5.17.73.16l.15-.01v.46h-.68l-.41-.05c-.027-.38-.68-.45-1.357-.33.01-.05.01-.09 0-.14-.1-.59-.17-1.19-.23-1.79.24-.08.47-.18.68-.31.16-.103.33-.225.33-.43v-.2c0-.18-.41-.2-.5-.21-.19-.01-.39.01-.58.04-.08-1.304-.08-2.614-.08-3.924 0-.84-2.83-.32-2.828.756 0 1.78.01 3.57.19 5.34-.087-.004-.18 0-.27.01V14.4c0-1.045-1.297-1.22-2.147-.81.31-.26.49-.62.37-1.038-.4-1.42-.78-2.83-.97-4.29-.19-1.397-3.02-.68-2.827.753.2 1.46.57 2.87.98 4.28.23.83 1.335.89 2.1.51-.224.197-.37.45-.37.76v.63c-.19-.1-.44-.16-.77-.16-1.056 0-1.67.886-1.4 1.478l-.49-.08c-.38-1.25-.686-2.514-.714-3.83-.02-.942-1.27-1.05-2.104-.672-.01-.05-.026-.11-.05-.16-.39-.81-.57-1.68-.78-2.54-.33-1.35-3.16-.6-2.826.76.16.64.3 1.28.52 1.9l-.05.01c-.3.08-.6.21-.85.39-.83.08-1.83.56-1.75 1.21.06.48.13.95.21 1.42-.55.09-1.097.18-1.64.26-.29-.78-.5-1.6-.62-2.44-.13-.92-1.557-.85-2.33-.26-.777-2.06-1.8-4.02-3.12-5.76-2.62-3.44-7.1-4.61-11.247-3.79-1.9.38-3.74 1.18-5.048 2.65-1.21 1.35-1.35 3.09-1.17 4.81.16 1.49.61 4 1.58 5.97-.35-.01-.71.04-.95.14-.28.12-.56.25-.83.39-1.94.03-3.88.02-5.8-.07-4.18-.2-8.3-.86-12.5-.74-.93.02-1.54.72-1.47 1.26-1.044.5-1.73 1.31-2.14 2.28-1.73-1.15-3.48-2.27-5.334-3.21-.69-.35-3.3.71-2.28 1.224 1.84.94 3.56 2.07 5.28 3.21.51.34 1.32.14 1.84-.07.03-.01.09-.04.16-.07-.31 1.44-.16 3.07.24 4.49.03.11.09.2.17.27-.02.34-.02.68-.01 1.02v.16c-.4.19-.71.48-.76.84-.19 1.41-.28 2.82-.3 4.23-.27.2-.46.47-.485.8-.23 3.34.04 6.65.47 9.95.18 2.69.69 5.34 1.17 8l.163 1.25c-.265 1.14-.4 2.4-.237 3.49-.88.17-1.73.866-1.23 1.617.763 1.16 1.642 2.02 2.61 2.65-.64-.11-1.42.11-1.87.55-.82.81-1.72 1.53-2.54 2.34-.43.42-.32.93.29 1.075.65.16 1.51-.06 1.99-.53.82-.81 1.715-1.53 2.533-2.34.25-.24.31-.52.202-.73 3.21 1.74 7.23 1.27 11.11.94-.886 1.59-1.546 3.28-2.17 5-.266.72 2.503.37 2.8-.44.61-1.675 1.234-3.34 2.1-4.895 3.74.12 7.48.12 11.212.05.15.18.42.303.75.34 3.27.31 6.49-.1 9.685-.7 4.79-.23 9.58-.53 14.37-.81 7.53-.19 15.06-.35 22.59-.32.1.11.2.21.31.32.27.25.62.34.98.33.067.01.13.01.2.02.72.03 1.43.08 2.14.14.16.04.34.06.56.04h.01c.78.066 1.56.14 2.346.207.17.215.5.343.795.36 3.8.25 7.61.524 11.42.705.14.23.54.34.82.34 7.07.06 15.28 2.81 21.56-1.73.5-.363.27-.88-.27-.985-.104-.02-.213-.03-.32-.033.01-.02.02-.03.02-.05 1.2-2.77 2.18-5.636 2.95-8.55.37-.2.63-.49.65-.86.05-1.19.19-2.41.37-3.64.17-.88.32-1.77.44-2.66.39-2.17.81-4.37 1.02-6.54 2.28-1.15 4.54-2.337 6.62-3.82 1.57-1.12-.78-1.88-1.83-1.14zM87.835 16.35c-.05.04-.094.08-.134.124.08-.312.15-.623.23-.934h.11l-.2.81zM63.26 12.626c.128.196.563.217.754.217.377 0 .76-.083 1.106-.225.404-.166 1.1-.56.77-1.07-.363-.562-.61-1.19-.975-1.754-.127-.196-.562-.217-.754-.217-.37 0-.75.083-1.1.226-.4.165-1.1.558-.77 1.07.37.56.61 1.19.98 1.753zm-42.577-1.72c.216.648 1.11.648 1.648.505.48-.12 1.39-.61 1.18-1.26-.21-.62-.43-1.29-.89-1.78-.48-.5-1.32-.41-1.9-.15-.41.19-1.17.84-.69 1.35.38.41.48.77.67 1.34zm9.977 2.99c.843 0 3.073-1.277 1.186-1.277-.843 0-3.074 1.27-1.186 1.27zm91.902-1.622c.346.072.717.032 1.055-.06.32-.085.7-.233.94-.476.356-.355.73-.73.963-1.178.104-.198.174-.4-.005-.587-.188-.197-.507-.245-.763-.25-.376-.01-.76.073-1.106.22-.252.105-.62.293-.756.552-.098.186-.218.353-.35.513l-.024.027-.028.032-.195.2c-.158.157-.346.364-.28.613.064.24.334.35.55.394zm13.298 5.418c.632-.06 1.396-.246 1.895-.662 1.32-1.102 2.603-2.248 3.623-3.642.288-.393-1.05-.243-1.118-.23-.534.1-1.316.276-1.66.746-.95 1.296-2.165 2.35-3.392 3.374-.498.415.44.434.653.414zm10.88 27.078h-4.872c-.616 0-1.475.467-1.556 1.138-.09.74.754.922 1.304.922h4.87c.618 0 1.476-.468 1.558-1.14.09-.738-.754-.92-1.304-.92zM57.02 60.784c-.497.08-1.41.296-1.638.83-.538 1.273-.98 2.572-1.364 3.898-.21.733 2.57.333 2.798-.45.383-1.328.825-2.626 1.363-3.898.22-.527-.97-.412-1.16-.38zm4.582 2.59c-.347-.002-.696.064-1.03.153-.332.09-.67.207-.967.383-.14.084-.338.2-.338.39 0 .116-.007.23-.02.346-.026.103-.06.2-.126.286l.02-.014c-.06.082-.11.18.02.253.2.12.51.09.72.07.38-.03.75-.12 1.1-.25.24-.08.61-.2.8-.4.15-.16.24-.28.29-.5.04-.18.05-.35.05-.53 0-.16-.42-.17-.48-.17zm55.05 3.676c-.354-.685-3.043.332-2.823.758.84 1.638 1.93 3.122 2.92 4.677.43.69 3.04-.414 2.82-.757-.98-1.554-2.08-3.04-2.93-4.677zm4.092-2.337c-.294-.588-1.067-.563-1.624-.414-.35.09-1.485.59-1.2 1.17l1.17 2.33c.294.59 1.068.56 1.624.41.35-.1 1.486-.6 1.2-1.17l-1.17-2.34zM5.668 43.105c-1.486.36-3.006.57-4.48.975-.538.146-1.343.64-1.16 1.318.18.675 1.127.71 1.663.562 1.48-.403 3-.615 4.49-.975.54-.13 1.34-.65 1.16-1.318-.18-.685-1.12-.692-1.66-.562z"/>
  <path fill="#FFF" d="M43.752 40.106c-.083-2.707-.514-5.396-.48-8.108.03-2.194.394-4.45-.362-6.554.047-.24.097-.477.14-.717.196-1.055-3.3-.497-3.848.468-.346.283-.523.62-.377.965.037.087.07.175.102.263-.662 3.233-1.584 6.364-2.645 9.498-.406 1.2-.896 2.37-1.31 3.57-.587-1.11-1.18-2.21-1.658-3.41-1.386-3.46-2.636-6.96-4.326-10.3.192-1.54-3.232-1.38-3.907.04-.81 1.71-.71 3.44-.44 5.27.31 2.06.36 4.09.38 6.17.05 4.01.36 8.02.42 12.03-.35.4-.46.89-.09 1.39.17.22.37.39.58.56.92.73 3.54.11 3.53-1.28-.01-4.16-.31-8.31-.42-12.47-.01-.4-.02-.81-.02-1.22l.18.44c.65 1.62 1.32 3.2 2.21 4.7.88 1.49 1.32 3.09 1.82 4.72-.19.22-.3.47-.23.71-.04.19.07.3.25.37.65.55 1.86.28 2.54-.01.29-.12.57-.26.84-.42.35-.21.89-.68.73-1.17l-.09-.28c.48-1.28.72-2.61.98-3.96.28-1.44.79-2.8 1.31-4.17.05.63.11 1.25.16 1.87.21 2.58.04 5.12.01 7.7-.01.86.06 1.65.22 2.49.07.35.37 1.83.29 1.91-.62.57-.44 1.27.39 1.45.92.21 2.1-.1 2.79-.75 1.21-1.11.64-2.87.37-4.28-.46-2.36.09-5 .02-7.41zm8.44.682c-.074-2.007-.77-3.897-.78-5.925-.012-2.327.182-4.635-.157-6.95-.107-.73-4.093.102-3.953 1.06.312 2.13.2 4.268.16 6.412-.036 2.063.473 3.934.738 5.958.27 2.073-.085 4.195.15 6.27.11.972.758 2.77.09 3.613-.424.537 1.482.345 1.568.33.775-.143 1.81-.395 2.324-1.048.66-.835.198-2.448.054-3.387-.32-2.08-.115-4.23-.194-6.33zm16.478-3.35c-2.08-2.81-5.942-.787-8.64-1.554-1.39-.396-1.406-2.292-1.402-3.428.004-1.44-.115-2.757-.276-4.184-.12-1.06-.024-2.14.753-2.93.143-.146.866-.34.817-.342.356-.062.683-.077 1.077-.094 1.56-.067 4.65.234 4.05 2.506-.27 1.02 3.63.435 3.91-.643 1.22-4.64-7.35-3.75-9.78-3.11-2.23.59-4.69 1.86-4.82 4.44-.06 1.23.27 2.4.33 3.62.06 1.4-.2 2.8.29 4.15 1.09 3.01 5.57 1.59 7.85 1.76 3.88.29 2.72 5.52 2.77 7.95.03 1.3 1.19 3.46.21 4.55-.6.66-2 .7-2.82.77-.82.07-2.22.31-2.77-.47-1.01-1.43.09-3.84-.12-5.48-.13-.94-4.11-.1-3.96 1.06.34 2.65-1.41 6.2 2.42 6.65 2.46.29 5.24-.17 7.57-.94 1.21-.4 2.33-.95 3.27-1.81 1.04-.95.7-2.37.42-3.58-.68-2.94.74-6.33-1.18-8.93zm17.485-.19c-.122-3.812-.696-7.582-.71-11.4-.01-1.99-4-1.317-3.994.346.02 3.64.51 7.232.69 10.862.01.074.01.148.01.223-1.96-.02-3.93.17-5.9.24.21-4.68-.61-9.31-.44-13.99.02-.59-3.91-.09-3.95 1.06-.17 4.51.6 8.99.46 13.51-.06 2.15-.24 4.3-.26 6.46 0 1.1.18 2.2.34 3.29.15 1 .49 2.35.19 3.35-.24.77 3.6.29 3.9-.71.55-1.79-.22-4.08-.41-5.89-.18-1.74-.04-3.53.09-5.3 2.05-.13 4.1-.3 6.13-.02.09 1.39.2 2.78.33 4.17.11 1.16.18 2.33.2 3.5.02 1.03.15 2.52-.22 3.49-.78 2.07 3.18 1.9 3.76.36.71-1.88.51-4.23.39-6.22-.15-2.46-.48-4.92-.56-7.39zm17.087 4.514c-.948-2.783-2.395-5.224-3.65-7.868 1.01-1.967 2.037-3.935 2.96-5.942.838-1.824 1.46-3.854 3.107-5.14.57-.45.55-.903-.26-.96-.89-.06-2.09.195-2.8.75-1.5 1.168-2.45 2.587-3.23 4.307-.94 2.06-1.92 4.1-2.94 6.13l-.23.44c-.5.32-.79.77-.65 1.27-.8 1.58-1.62 3.14-2.52 4.65-.31-5.59-.97-11.16-1.16-16.75-.05-1.28-4.01-.49-3.96 1.06.25 6.93 1.23 13.84 1.3 20.77-.02.01-.03.03-.05.05-.3.31-.19.5.05.6 0 1.77-.06 3.53-.21 5.3-.48.75.46 1.15 1.09 1.15h.1c.74 0 2.65-.36 2.74-1.38.19-2.12.25-4.24.23-6.35 1.6-1.73 2.91-3.67 4.09-5.69.76 1.49 1.49 3 2 4.62.87 2.76 2.32 5.31 3.16 8.09.55 1.82 4.5.74 3.95-1.06-.84-2.78-2.23-5.35-3.16-8.09zm23.718-4.677c-.212-.84-1.385-.857-2.292-.777-.013-.338-.02-.677-.036-1.016-.127-2.686-.168-5.428-.396-8.105-.21-2.48-1.6-3.368-4.008-3.276-2.438.1-5.277.54-7.55 1.42-2.632 1.03-4.096 2.96-4.6 5.74-.556 3.04.24 6.28.376 9.33.155 3.54.066 7.08.062 10.62 0 .58 3.952.03 3.953-1.06 0-2.8.04-5.6 0-8.4-.02-.82-.06-1.65-.11-2.46 1.38-.6 3.72.02 5.09.15 1.11.11 2.19-.16 3.27-.29.02 2.33.11 4.68.2 7.01.05 1.19.48 3.56-.36 4.55-.44.52 1.49.35 1.57.33.8-.14 1.78-.4 2.32-1.05.95-1.13.46-3.82.4-5.17-.08-1.93-.11-3.86-.15-5.79 1.16-.15 2.44-.86 2.22-1.72zm-14.752-.152c-.104-1.257-.22-2.513-.306-3.777-.16-2.352.118-5.634 2.31-7.062.587-.383 1.69-.317 2.377-.442.97-.177 1.97-.393 2.85.192 1.22.81.92 3.69.92 4.913 0 2.024.21 4.038.31 6.058-.56.056-1.12.09-1.7.077-2.31-.055-4.59-.418-6.77.04zM48.77 25.176c.527-.05 1.056-.23 1.49-.53.088-.072.174-.145.26-.218.525-.338.98-.834.735-1.373-.51-1.115-.428-2.25-.42-3.445.007-.966-.972-1.257-1.797-1.185-.73.064-2.188.586-2.194 1.534-.007 1-.072 2.03.11 3.02-.05.11-.075.24-.105.35-.06.21.01.42.14.59v.13l.01.34c.07.23.21.41.43.53.39.23.88.28 1.32.23z"/>
</svg>
