<svg xmlns="http://www.w3.org/2000/svg" width="85.6" height="35" viewBox="32.5 20.2 85.6 35">
  <path d="M36.6 46.5c0-3.5-.2-7-.3-10.4v-1 .5l2 4c.7 1 1 2.5 1.5 3.8-.2.2-.3.4-.2.6 0 0 0 .2.2.2.5.5 1.5.2 2 0 .3 0 .6-.2.8-.4.3 0 .7-.5.6-1v-.2l.7-3.3c.2-1.2.6-2.3 1-3.5 0 .6 0 1 .2 1.6v6.4c0 .7 0 1.4.2 2 0 .4.3 1.6.2 1.7-.5.5-.4 1 .3 1.2.7.2 1.7 0 2.3-.6 1-1 .5-2.3.3-3.5-.4-2 0-4.2 0-6.2 0-2.3-.5-4.5-.4-6.8 0-1.8.3-3.7-.3-5.4v-.5c.2-1-2.8-.4-3.2.4-.3 0-.5.4-.3.7v.2c-.5 2.6-1.3 5.2-2.2 7.8l-1 3-1.4-3c-1.3-2.7-2.3-5.7-3.7-8.5 0-1.2-2.7-1-3.3 0-.7 1.5-.6 3-.4 4.5.3 1.7.3 3.4.3 5 0 3.5.2 6.8.3 10-.3.5-.4 1 0 1.3 0 .3.2.4.4.6.8.6 3 0 3-1zM54.8 28c0-.5-3.4.2-3.3 1 .3 1.8.2 3.6.2 5.4 0 1.7.4 3.3.6 5 .2 1.7 0 3.5 0 5.2.2.8.7 2.3.2 3-.4.5 1.2.3 1.3.3.6-.2 1.5-.4 2-1 .5-.7 0-2 0-2.8-.3-1.7 0-3.6-.2-5.3 0-1.8-.6-3.4-.6-5 0-2 0-4-.2-6zM58 34.8c1 2.5 4.6 1.3 6.5 1.5 3.2.2 2.3 4.6 2.3 6.6 0 1 1 2.8.2 3.7-.5.6-1.7.6-2.4.6-.6 0-1.8.3-2.3-.3-.8-1.2 0-3.2 0-4.6-.2-.8-3.5 0-3.4 1 .2 2-1.2 5 2 5.4 2 .3 4.3 0 6.3-.8 1-.3 2-.7 2.7-1.5 1-.8.6-2 .4-3-.6-2.4.6-5.2-1-7.4-1.8-2.2-5-.6-7.2-1.2-1.2-.3-1.2-2-1.2-3s0-2.2-.2-3.4c0-.8 0-1.7.6-2.4l.7-.3h1c1.3 0 4 0 3.4 2-.3 1 3 .4 3.2-.5 1-4-6-3-8-2.6-2 .5-4 1.6-4.2 3.7l.3 3c0 1.2-.2 2.4.3 3.5zM72.4 36.7l-.2 5.4c0 1 0 2 .3 2.8 0 .8.4 2 0 2.8 0 .6 3 .2 3.4-.6.3-1.5-.3-3.4-.5-5v-4.3c1.8 0 3.5-.3 5.2 0L81 41l.2 3c0 1 0 2.2-.2 3-.7 1.7 2.6 1.6 3 .3.7-1.6.5-3.6.4-5.2 0-2-.4-4-.4-6 0-3.3-.6-6.4-.6-9.6 0-1.6-3.4-1-3.4.3 0 3 .5 6 .6 9v.3c-1.6 0-3.3 0-5 .2.3-4-.4-7.8-.3-11.7 0-.5-3.2 0-3.3 1 0 3.7.5 7.4.4 11.2zM86.5 42c-.3.3-.2.4 0 .5V47c-.5.6.2 1 .8 1 .7 0 2.3-.4 2.3-1.2.2-1.8.3-3.6.2-5.3 1.4-1.5 2.5-3 3.5-4.8.6 1.3 1.2 2.5 1.6 4 .7 2.2 2 4.3 2.6 6.6.4 1.6 3.7.7 3.3-.8-.8-2.4-2-4.5-2.8-6.8-.8-2.3-2-4.4-3-6.6.8-1.5 1.7-3 2.5-4.8.6-1.5 1.2-3.2 2.5-4.3.5-.5.5-1-.2-1s-1.7.2-2.3.7c-1.3 1-2 2.2-2.7 3.6l-2.5 5v.5c-.6.3-.8.6-.7 1l-2 4c-.3-4.7-1-9.4-1-14 0-1-3.4-.4-3.4.8.3 5.8 1 11.6 1 17.4zM118 35.8c0-.7-1-.7-2-.6v-1c0-2 0-4.4-.2-6.7-.2-2-1.4-2.8-3.4-2.7-2 0-4.4.4-6.3 1.2-2 .8-3.3 2.5-3.7 4.8-.5 2.5.2 5.2.3 7.8v8.8c0 .5 3.3 0 3.3-1v-7c0-.6 0-1.3-.2-2 1.2-.4 3.2 0 4.3.2 1 0 2-.2 2.8-.3 0 2 0 4 .2 6 0 1 .4 3-.3 3.7-.4.4 1.3.3 1.3.3.7-.2 1.5-.4 2-1 .8-.8.3-3 .3-4.2v-4.8c.8 0 2-.7 1.7-1.4zm-6.6-.2c-2 0-4-.3-5.7 0l-.2-3c-.2-2 0-4.8 2-6 .4-.3 1.3-.2 2-.3.7-.2 1.5-.4 2.3 0 1 .8.7 3.2.7 4.2 0 1.7.2 3.4.3 5h-1.4zM51.2 24.3v.9l.5.5c.3.2.7.2 1 .2.5-.2 1-.3 1.3-.6 0 0 .2 0 .2-.2.5-.2.8-.7.6-1-.4-1-.3-2-.3-3 0-.8-.8-1-1.5-1-.6 0-1.8.5-1.8 1.3v2.8zM112.7 53.5c-1.5-.6-3.2-.6-4.8-.8l-5-.5h-5l-5 .4c-6.3.2-12.8.2-19.4 0-6.5 0-13-.4-19.6-.4-3.3 0-6.6 0-10 .3-1.5.2-3 .5-4.8 1-1.6.3-3 .8-4.8 1 1.7.3 3.4.2 5 .2l5 .2c3-.2 6.4-.3 9.6-.3 6.5 0 13 .3 19.6.4 6.5.3 13 .3 19.7 0l5-.2c1.5 0 3-.2 4.7 0l5-.6c1.6-.3 3-.7 4.8-.5V53v.5z"/>
</svg>
