<svg xmlns="http://www.w3.org/2000/svg" width="624" height="256" viewBox="0 0 468 192">
  <path d="M378 1.6c-8 .7-21.7 2.2-30.5 3.4-26.7 3.4-49.5 4.3-81 3-56.6-2.2-80.6-2.6-153-2.6-66.4 0-75 .3-82.7 2-16.7 3.2-19 5-24 19.3C2.2 38.7.8 49 .2 70.5c-.6 22.3.5 41.2 4.2 70.2L7 160.3c0 .3-1 .8-2.5 1-6 1.6-.2 9.8 12.8 17.5 10.8 6.5 28 7.5 74.2 4.2 9.7-.7 18.2-.6 27.5 0 18.7 1.7 65.4.6 99-2 37-3 90.2-3.4 103-.7 5 1 17.6 2.2 29.8 2.8 21 1.3 21.3 1.4 24.2 4 9 8.5 31.5 6 67.5-7 7.6-2.6 15-5 16-5 3.2 0 5.2-2.7 7-9.4 4.5-16 2.3-90.2-4-139.4-2-15.2-4-18.3-15-22-3.3-1-9-2.4-12.5-3-8.8-1.3-38.2-1-56 .6zM134.6 18.4c.6.6 1.6 5 2.3 10l1 9-3 2.8c-2.4 2.2-4 2.8-7.5 2.8-2.4 0-4.8-.6-5.5-1.4-.5-.7-1.3-5.2-1.6-10-.5-7-.3-9 1-11 2.6-4 10.2-5.3 13.2-2.2zM352.4 31c.3.4-1 2.6-3 4.8-2.2 2.3-7.4 11.7-13 22.8l-9 19 6.2 13c7.8 16 20.4 47.5 20.4 51 0 2.8-5 6.4-9 6.4-3 0-7-2.5-7-4.3 0-.7-1.6-5-3.6-9.7-2-4.7-5.3-13-7.4-18.5-2-5.5-5-12.5-6.2-15.5l-2.4-5.5-3.5 5.5c-2 3-6 8-8.4 11.2L302 117v11.2c0 7-.5 12.2-1.3 13.8-1.6 3.3-8.6 5.8-12.3 4.5l-2.7-1 .2-21.5c0-12.3-.7-29.4-1.5-40-1-10.2-2-25-2.6-33l-1-14.4 2.4-2.5c2-2 3.5-2.3 7.7-2.4h5.4l.6 6c.5 3.3 1.6 17 2.5 30.5 1 13.6 2 25.7 2.4 27 .4 2 1 1 5-6.6l5-10.3 9.3-18.4c8.7-17.7 14.4-25.6 20-28 3.6-1.6 10.2-2 11-.6zm-155.2 5c8.5 2 13 8 9.8 14-1.2 2.2-6 4-11 4-3.8 0-4 0-4-3.3 0-2-.8-4-2-5-2.7-2.7-12.6-4.2-17.6-2.8-6.2 1.5-6.7 3.5-5.7 22.3 1.2 20.8.5 20 19 20 12.8 0 14 .3 17 2.4 5.7 4 6.7 7 7.5 23.7.4 8.2 1 17.2 1.3 20 .8 6-1.2 9.3-8.3 13-15.3 7.7-37.8 9.3-44 3.2-2.5-2.5-2.6-3-2.4-13.3.2-6 .7-11.3 1.2-12 1.4-1.6 9-3.7 12-3.2 2.5.4 2.5.5 2.2 11-.4 9.5-.2 10.6 1.7 12.3 1.5 1.6 3 1.8 9.3 1.4 4.8-.3 8.5-1 10.2-2.2 2.5-1.7 2.6-2 2-7.4-.4-3-1-12-1.4-20-1-21-2.5-22.6-20.6-21.5-11.5.7-16.7-.5-19.8-4.8-1.7-2.2-2-5.2-3-18.5-.4-8.7-.5-16.8-.2-18 1-4.3 7.4-10 13.3-12.4 10.2-4 23.4-5 33.4-3zm37.6 21.2C235.5 69 236 81.4 236 85v6.3l11-.6c6.2-.3 11.3-.7 11.5-1l-1-15.7c-2-23-2-28.3.5-30.5 1-1 4-2 6.3-2.2 5.8-.7 7.7 1.2 7.7 7.5 0 2.6.6 12.8 1.4 22.7 3 38.6 4 53.4 3.4 62.2-.3 8-.8 9.6-2.7 11.7-2.6 3-7.3 4-10.6 2.3l-2.5-1.2-.4-19.5c0-10.7-.6-21.4-1-23.7-.7-4-1-4.3-4.2-5-4-.6-17.6.2-19.3 1.2-1.4 1-1 18.7.6 28.4 2.5 14 .4 18-9.7 18.3-5 0-5.4 0-5.3-2.4 0-1.5-.3-5-.8-8-.7-3-1.3-21.8-1.6-41.6l-.6-45.5-.2-9.6 3.5-1.7c2-1 5.4-1.8 7.7-1.8h4l1.2 21zM417 39.8c5.8 3 7 6.5 7.6 25.3.7 21 .6 21 5 21.7 6.5 1.2 6.3 6.3-.3 9l-3.6 1.6.7 18.7c.7 20 .3 22.8-3.8 25.5-2.5 1.7-13.6 3.3-13.6 2 0-.3.5-1.5 1-2.5.7-1.3.8-9.3.4-23-.7-20.7-.7-21-2.8-20.4-1.2.4-5.2.6-9 .4-4 0-10.2-.3-14-.4H378V119c0 20 0 21.8-1.8 23.3-2 1.8-10.7 3.8-13 3-1-.4-1.2-4.8-1.2-20.7 0-11-.7-26.8-1.5-35-2.3-22.6 0-32.4 9.2-40.5 9.4-8 38-14 47.3-9zm-311.4.3c.8 1.6 2.7 49.7 2.8 73 0 9.7.5 20.6 1 24.3 1 6.6.8 6.7-2 9.7-3.4 3-9.2 4.8-12 3.2-2-1.2-3-11.2-2.6-29.7.2-6.6 0-15.8-.4-20.5l-.7-8.5-1.4 3.4c-1.4 3-6 22.5-6.8 28-.7 5-10 9.3-15 7-2.2-1-2.6-1.6-2-3.5.7-3-2-10.4-9.4-25.6-4-8.4-6-11.7-6-10l1 25.7c1.4 25.6 1 26.4-4.5 28.8-4 1.7-7.4 1-10.4-2-1.5-1.8-2-3-1-4.3 1-2-.3-43-2-67.4-1.3-17.5-1-23 2-27 3.2-4.4 13.4-5.3 14.7-1.2.3 1 2.2 5.2 4 9.6 2 4.3 5.7 13.4 8.4 20C69 89.2 73 98 74 98c2 0 15-44 15-50.5 0-3.6 2.3-6.2 6.6-7.5 4.2-1.2 9.2-1.2 10 0zm32.8 16c.3 2 .6 9.5.6 17 0 7.6.7 17.3 1.5 22 .8 4.8 1.5 13.7 1.5 20 0 6.3.5 14 1 17.7 1.7 9.3-1 13-10.7 14l-5 .6v-4.8c0-10-2.3-42-3.2-46.4-.3-2.4-1-12.3-1-22l-.4-17.4L126 55c2-1 5.5-2 7.7-2 3.8 0 4.2.3 4.8 3zm250.4-10.3c-4.6.5-10.2 6.4-12 12.5-1 4.4-1.3 23-.3 27.7l.6 2.4 16 .2 16 .2-.4-19.3c-.8-23.5-1-24-10-24.3-3.3 0-7.7 0-9.7.3z"/>
</svg>
