<svg class="header__logo-icon header__logo-icon--tablet" xmlns="http://www.w3.org/2000/svg" width="112.389" height="46.087" viewBox="19.137 15.003 112.389 46.087">
  <path d="M129.364 56.884c4.394.868.843-35.858.147-38.31-1.96-6.57-26.67-2.145-32.18-1.718-12.72.987-25.18-.96-37.61-.376-6.2.292-34.85-1.813-37.52 1.986-5.04 7.208-2.65 25.797-1.27 35.076-4.04.78 2.31 4.154 3.14 4.897 6.32 2.19 16.36-.22 23.01.39 15.44 1.47 31.8-2.2 47.28-.96 4.5 1.14 9.61 1.02 14.23 1.24 3.42 5.57 19.67-2.47 20.8-2.24-.1-.02.51.1 0 0z"/>
  <path fill="#FFF" d="M45.195 39.413c-.08-2.546-.484-5.074-.45-7.624.025-2.07.37-4.19-.342-6.17.043-.23.09-.45.132-.68.184-1-3.103-.47-3.62.44-.325.26-.492.58-.354.9.04.08.07.16.1.24-.62 3.04-1.49 5.98-2.48 8.93-.38 1.12-.84 2.23-1.23 3.35-.55-1.05-1.11-2.09-1.56-3.21-1.3-3.26-2.48-6.55-4.07-9.69.18-1.45-3.04-1.3-3.67.03-.76 1.6-.67 3.23-.41 4.95.29 1.94.34 3.84.36 5.8.05 3.77.34 7.53.4 11.31-.33.37-.44.83-.08 1.3.16.2.35.36.55.52.86.69 3.32.1 3.32-1.21-.01-3.91-.29-7.818-.4-11.73-.01-.38-.01-.77-.02-1.15l.16.41c.61 1.52 1.24 3 2.07 4.414.83 1.4 1.24 2.903 1.71 4.433-.18.204-.28.44-.22.67-.04.17.07.28.24.347.61.52 1.75.26 2.38-.003.27-.11.53-.243.79-.4.33-.2.84-.642.69-1.1l-.08-.262c.45-1.206.67-2.46.92-3.73.26-1.356.74-2.64 1.23-3.924.046.59.1 1.18.144 1.76.197 2.42.03 4.81.01 7.236-.01.8.05 1.55.21 2.337.065.33.35 1.72.267 1.79-.58.54-.41 1.2.37 1.37.864.19 1.97-.1 2.624-.7 1.14-1.05.6-2.7.34-4.025-.43-2.22.09-4.71.02-6.975zm7.937.643c-.07-1.888-.725-3.666-.734-5.573-.01-2.188.172-4.358-.146-6.535-.1-.688-3.85.095-3.717.996.293 2.002.187 4.014.15 6.03-.034 1.94.445 3.698.695 5.602.254 1.95-.08 3.945.14 5.897.104.913.713 2.603.085 3.398-.398.51 1.394.33 1.474.31.72-.13 1.7-.37 2.18-.98.62-.78.18-2.3.05-3.18-.3-1.95-.11-3.98-.19-5.95zm15.498-3.153c-1.958-2.64-5.59-.74-8.126-1.46-1.308-.372-1.323-2.155-1.32-3.224.004-1.36-.107-2.6-.26-3.94-.11-1-.02-2.02.71-2.76.134-.14.814-.32.767-.33.34-.06.65-.07 1.02-.09 1.47-.07 4.38.22 3.82 2.35-.25.96 3.42.41 3.68-.61 1.15-4.36-6.91-3.53-9.19-2.92-2.09.56-4.41 1.75-4.53 4.17-.06 1.16.26 2.26.31 3.4.06 1.32-.19 2.63.27 3.91 1.03 2.83 5.24 1.49 7.38 1.65 3.65.27 2.56 5.19 2.61 7.48.03 1.22 1.12 3.25.2 4.28-.56.62-1.88.66-2.65.72-.77.065-2.09.297-2.6-.437-.94-1.348.09-3.608-.11-5.15-.11-.88-3.86-.09-3.72.995.33 2.49-1.32 5.83 2.28 6.26 2.32.273 4.93-.15 7.12-.88 1.14-.38 2.19-.897 3.08-1.7.98-.89.66-2.23.4-3.367-.64-2.77.7-5.957-1.11-8.4zm16.44-.178c-.114-3.584-.653-7.13-.67-10.72-.006-1.87-3.76-1.238-3.753.326.014 3.43.472 6.81.646 10.22l.012.21c-1.85-.02-3.7.17-5.553.23.19-4.39-.58-8.75-.41-13.15.02-.55-3.678-.08-3.72 1-.16 4.25.56 8.46.43 12.71-.06 2.03-.23 4.05-.246 6.08-.007 1.04.164 2.08.312 3.1.138.95.458 2.22.172 3.15-.224.73 3.38.28 3.666-.66.516-1.68-.21-3.83-.383-5.54-.167-1.63-.04-3.32.078-4.98 1.93-.12 3.86-.28 5.77-.01.09 1.31.19 2.61.31 3.93.1 1.1.17 2.19.19 3.3.02.97.14 2.37-.21 3.28-.73 1.96 2.99 1.79 3.54.35.67-1.77.48-3.98.37-5.85-.14-2.32-.45-4.62-.53-6.95zm16.07 4.245c-.893-2.616-2.253-4.912-3.432-7.398.95-1.85 1.915-3.7 2.782-5.588.788-1.715 1.373-3.624 2.922-4.833.545-.42.522-.85-.243-.9-.83-.06-1.96.18-2.63.71-1.41 1.1-2.3 2.44-3.04 4.05-.89 1.95-1.8 3.86-2.77 5.77-.07.14-.14.28-.22.42-.47.3-.75.73-.61 1.2-.75 1.49-1.52 2.96-2.37 4.38-.29-5.25-.91-10.49-1.1-15.75-.04-1.2-3.77-.45-3.72 1 .23 6.52 1.15 13.02 1.22 19.54l-.05.05c-.29.3-.18.47.05.57 0 1.66-.06 3.33-.2 4.99-.45.71.44 1.08 1.03 1.08h.09c.7 0 2.49-.33 2.58-1.29.18-1.99.23-3.98.22-5.97 1.51-1.63 2.74-3.44 3.85-5.35.72 1.41 1.4 2.82 1.88 4.35.81 2.61 2.18 4.99 2.97 7.61.52 1.72 4.23.7 3.72-.99-.79-2.61-2.09-5.023-2.98-7.603zm22.303-4.397c-.2-.79-1.302-.807-2.156-.73-.012-.32-.02-.638-.033-.957-.12-2.525-.158-5.104-.37-7.622-.2-2.33-1.506-3.167-3.77-3.08-2.294.087-4.963.5-7.102 1.332-2.475.962-3.852 2.784-4.326 5.39-.522 2.86.227 5.902.354 8.776.146 3.324.062 6.655.06 9.98 0 .545 3.716.03 3.716-.996.004-2.633.04-5.268 0-7.9-.013-.777-.05-1.55-.097-2.318 1.3-.563 3.49.01 4.79.133 1.05.1 2.06-.15 3.08-.27.02 2.2.1 4.4.19 6.59.04 1.13.45 3.35-.34 4.28-.42.49 1.4.33 1.47.32.75-.14 1.67-.38 2.18-.98.9-1.06.43-3.59.38-4.86-.08-1.81-.1-3.63-.14-5.44 1.09-.14 2.29-.81 2.09-1.62zm-13.872-.143c-.09-1.183-.2-2.364-.28-3.552-.15-2.212.11-5.298 2.17-6.642.56-.36 1.59-.298 2.24-.416.93-.166 1.86-.37 2.69.18 1.15.763.87 3.47.87 4.62 0 1.905.2 3.798.3 5.7-.52.05-1.05.083-1.59.072-2.17-.053-4.31-.394-6.36.038zM49.92 25.373c.495-.047.992-.215 1.4-.497.083-.068.163-.138.245-.206.494-.318.92-.785.69-1.29-.48-1.05-.402-2.118-.394-3.242.01-.908-.91-1.182-1.69-1.114-.68.06-2.05.55-2.06 1.443 0 .942-.07 1.913.11 2.84-.04.106-.07.226-.1.336-.05.2.02.4.14.56v.127l.02.318c.07.22.21.388.41.503.37.23.83.27 1.25.23z"/>
</svg>
