<svg xmlns="http://www.w3.org/2000/svg" width="800" height="393.3" viewBox="0 0 600 295">
  <path d="M426.6 1.5C405 7 389 24.8 382 51.8c-2 7.5-2.4 8-4.4 7.2-3.3-1.2-8.2 1.2-9 4.5-.4 1.5-1 2.5-1 2.3-.6-.5 3.5-16 5.8-22.7 1.8-5 1.5-6-2-6-5.3 0-8 2.6-9.8 9.3-2 7-4.2 11.2-5.6 10.3-.6-.4-1-1.5-1-2.6 0-1.6-.7-2-3.6-2-5.5 0-7.4 1.5-7.4 5.8 0 2.6-.6 4-2 5-2.6 1.6-2.5 3.6.3 5 1.8 1 1.4 1-2.8.6-2.7-.3-5.3-1-5.7-1.7-1.5-2.4-.8-6.5 1.4-8 2.4-1.5 1.7-3.7-1.2-3.7-1.7 0-2-1-2.2-8.3l-.3-8.2h-3.7c-6.3.3-6.8 1.3-7 14.4 0 6.2-.3 9.6-.5 7.4-.5-4.8-1.8-6.5-5-6.5-1.7 0-2.3-.7-2.3-2.4 0-4.7-4.5-20-6-21-2.5-1.5-8 1-8.6 4-1 3.4 2.7 18.4 5 20.6 1 1.2 2.6 1.7 4 1.3 2-.5 2.3-.3 1.8 2-.3 1.8-1 2.4-3 2.4-3.4 0-6.2 1.7-6.2 4 0 1-.4 2-1 2-1 0-2.8-6-3.6-13-.7-5.7-2.6-7.6-6.7-6.6-2.2.6-2.5.2-4-5.4-2-6.5-3.7-8-8-7.3-4.2.8-5.2 2.7-4 8l.8 4.8-5 2.5c-4.8 2.4-5 2.7-5 6.5s-.2 4-3.2 4.3c-3 .3-3.3 0-4.3-4-2.2-8.6-1.8-8-6.5-7.6l-4.3.5-2.8-6c-10.8-23-24.2-32.7-44.8-32.7-13.2 0-23 3.5-29.8 10.7-2 2-4.2 5-4.7 6.6-2 6-.3 24 3.6 33.4.8 2 1.4 3.7 1.3 3.8-5.7 3-22 3.3-50 1-9.5-.8-21-1.5-25.3-1.5h-8l-5.2 5.5c-3 3-5.7 6.2-6.2 7-.8 1.6-2.2 1-10.8-4.4-5.4-3.2-11-6.2-12.2-6.6-2.6-.6-9.6 2.2-9 3.7.2.6 5.4 4 11.7 8 9.4 6 12 7 14.5 6.8l3-.5V90c0 3 .6 8.2 1.4 11.5 1.2 5.5 1.2 6-.5 7.2-1.4 1-2 3.4-2.7 10.4-.6 5-1.4 10-2 11-2.4 4.6-.2 37.6 4.4 65.3 1.7 10 2 15.2 1.5 19.2-.5 3-.6 6.5-.3 7.6.4 1.4 0 2-1 2-.7 0-2.2 1-3.2 2-1.6 2-1.7 2.4-.5 4.7.8 1.4 3.3 4.2 5.6 6.4l4 4-2.8.5c-3.7.7-16 12.2-15 14.2.2.8 1.8 1.4 3.8 1.4 2.6 0 4.7-1.2 10.3-6 3.7-3.2 7-6.4 7.2-7 .2-.6 1.7-.4 4 .5 5.5 2.3 19.2 3.6 29.8 2.7 5.2-.3 9.7-.5 10-.4 0 .2-1.6 4.6-4 10-2 5-4 10-4 10.4 0 1.3 5 1.3 8.3 0 1.6-.6 3-2.6 4.6-6.7 1.3-3.2 3.4-8 4.7-10.6l2.4-5 23.8.6 35.2.8c6.5 0 17-.6 24.5-1.5 18.6-2.6 63.4-4.8 111.6-5.5 36.6-.6 42-.5 44 .8 1.6 1 6.3 1.8 13 2.3 5.8.3 12 1 13.5 1.6 1.7.7 12.5 1.7 24 2.5 11.6.8 33.2 2.6 48 4 23.3 2.3 28.4 2.5 37 1.6 11-1 19-3.4 26-7.5 4.6-2.8 5.6-4.8 3-6.2-1.3-.8-1.2-1.7 1-6.8 1.2-3.3 3.8-10.7 5.6-16.5 2-5.8 4-11.2 4.6-12 .7-1 1.8-5.7 2.4-10.6 1-7.3 3.8-26.2 6.6-42 .4-2.5 2-3.7 11.8-9.2 6.3-3.5 13-7.7 14.7-9.3 3.5-3 3.5-3 1.7-4.5-3.2-2.4-5-1.8-15.6 4.5-5.4 3.3-10.2 6-10.7 6-1.4 0-2.4-15.5-2.2-32 .3-16-.7-20.4-5.6-26.8-2.4-3.3-2.8-3.4-7.3-2.8-4.3.6-4.6.5-6-2-.6-1.7-1.2-3.4-1-4 0-1.8-4.4-4-12.3-6-3.6-1-6.6-2-6.6-2.5s1.7-2.6 3.6-5c2-2 3.5-4 3.5-5 0-1.4-4-2.2-7-1-2.5 1-10 8-10 9.3 0 .4-5.4.8-12 .8-10 0-12.4-.2-13.4-1.5-1-1.5-2.2-1.5-11.4-.4-5.5.8-10.3 1-10.6.8-.3-.3 1-5 2.6-10.4 5.7-17.5 5-33.2-1.6-41.2-5.7-6.7-24.2-10-37.8-6.5zM204 76c1.6 1 2 2.2 2 7 0 3.2.5 7 1 8.6 1.4 3.7.5 6-3.4 8.4-4 2.4-9.8 2.6-12 .4-2.4-2.4-2.3-20.5.2-22.6 3.2-3 8.8-3.6 12.3-1.8zm168 14.5c.2.2.8 6.6 1.3 14.2 1.3 19.2 4 53.7 4.4 54 .5.5 9.6-16.8 9.6-18 0-.8 1-2.5 2-4 1-1.2 5.4-9.8 9.8-19 8-16.7 13.4-24.2 19.4-27.3 3-1.4 10-2 11.3-.8.4.4-1 2.4-2.8 4.6-2 2.2-7.7 12.2-13 23.6l-9.7 19.7 6 12.6c3.2 7 7.3 16.4 9 20.7 1.5 4.4 5 12.8 7.4 19 5.3 12.8 5.6 15.5 2 18.3-2.7 2-8.7 2.7-11 1.2-1.2-.7-8-17-14-32.7-4.4-12.2-8.2-20.5-9.2-20.5-.5 0-1.4 1-2 2.3-.5 1.3-4 6.2-7.5 11l-6.5 8.6-.7 13.3c-1 15.8-1.4 16.7-9.8 17.4-7 .6-7.5 0-6.6-11.8 1-11.8.5-27.8-2-62-3-41-3-39.8-1.7-41.5 2.4-3.2 12.3-5.3 14.5-3zm-101 5c6 1.8 9.2 5.3 9.2 10 0 4.4-3.3 6.7-10.6 7.3-5.4.4-5.4.4-5.4-2.5 0-4.3-2.4-7-7.4-8.2-10-2.3-17-1-19 4.5-1.4 3-1.4 5.7-.2 19.7 1.7 21 .8 20 19.6 20 12.5 0 14 .2 17 2.3 2 1.2 4.6 4.4 6 7.2 2 4.3 2.4 6.3 2.5 17 0 6.6.5 15.3 1 19.3.8 7.2.8 7.3-2 10.3-6.3 6.7-19 11-34.5 11.6-9 .4-11 .2-14-1.4-5.4-2.8-6.3-5.7-5.4-17.4.6-9.3 1-10.3 3.2-11.8 1.5-1 4.6-1.6 7.6-1.7h5v4c0 2.2-.4 7-.5 10.8-.4 6.3-.2 7 2 9 2.3 1.7 3.5 1.8 10 1.3 12-1 14-3 12.7-11.4-.4-2-1-10.7-1.4-19.2-1-22.3-1.7-23-22.3-23-19 0-22-2.3-22-16.7 0-3.7-.5-10-1-14.2-1.7-12.6 1-18 11.3-23 10-5 28.2-6.5 38.5-3.5zm37 22.2c.7 12.6 1.2 25.5 1.2 28.7v6l11.7-.8c6.3-.3 11.7-.8 12-1l-1.5-21.3c-.8-11.6-1.3-22.3-1-23.7.8-3 5.3-5.6 9.5-5.6 5.7 0 6 .5 7.6 26l3.3 45.4c2.2 30.3 1 37.6-7.4 39.2-4.3.8-8 0-8.8-2-.3-1 0-3.8.4-6.3 1-4.3-.2-35-1.5-41-.5-2.2-1-2.3-11.8-2.3-7.6 0-11.8.4-12.6 1.2-1.7 1.7-1.5 18.3.3 29.3 2 12 1.3 16.3-3 18-2 1-5.5 1.5-8 1.5-4.5 0-4.7 0-4.3-2.4.3-1.3 0-5-.5-8.3-.6-3.2-1-20.2-1-37.8l-1-46.7-1-14.6 3.3-2c2.2-1.4 5.2-2.2 8-2.2h4.6l1 22.7zm188.7-19c5.7 2.6 6.7 6.3 8 28.5l1 19.8h2.7c1.5 0 3.7 1 4.8 2 2.7 2.7 1.3 5.4-3.6 7.2l-3.7 1.3.5 19.5c.6 22.4 0 25-5.7 27.5-2 .8-5.4 1.5-7.6 1.5-4 0-4 0-3.3-2.3 1-2.3.6-18.7-.4-35.2l-.6-10h-33v22.7l.3 22.7-3 1.4c-1.7 1-5.3 2-8 2.2l-5 .6V188c0-11.4-.7-27.8-1.6-37-1.3-13-1.4-17.7-.5-23.3 1.8-11.3 6.3-18.4 14.7-23 11.3-6 36.3-9.6 43.7-6zM175 105.5c.7 4 1.2 12.5 1 19.5-.3 20.6 1 66 2 71.8 1.6 6.8.7 10.5-3 13.7-2 1.8-4 2.5-7.4 2.5-5 0-7.5-2-5.6-4.4.8-1 1-3 0-7.2-.5-3.2-1-14.8-1-25.8-.2-23-.7-26.4-3.2-18.4-2.2 7-6.8 26.5-6.8 28.8 0 2.2-3.4 4.5-8.8 6-5.5 1.4-8.2 0-8.2-4 0-4.2-3.6-14.4-7.2-21-1.7-2.8-4.4-8.2-6-12l-2.8-6.5.6 28c.6 27.4.6 28-1.4 29.8-1 1-4 2-6.2 2.4-3.4.5-4.5.2-6.6-1.8-2-2-2.4-3-2-6.3 1-4.6-1-56.8-2.5-73.8-1-11-1-13.4.3-18 1.3-5 2-6 5-7.5 4-2 7.6-2 9.8-.4 2 1.6 8 15 14.6 32S141 160 142 158.6c3.6-6.2 15.2-45.7 15.2-51.2 0-1.8.6-4 1.2-5 2-2.4 7.6-4.6 11.5-4.3 3.3.2 3.3.2 4.6 7.2zm32.7 7.5c.4.6.6 7.6.6 15.7 0 8.7.7 18 1.6 22.7 1.4 8.5 3.7 49.8 3 52.7-1 2.7-6.8 5-12 5H197l-.3-18.2c-.2-10.3-1-24-2.2-31.7-1-8-1.8-19.3-1.8-28.2 0-14 0-14.8 2-15.8 5-2.8 12.2-3.8 13.3-2zm263-9c-7 1-9 2-12 6.3-4 5.4-5 10.3-5 22.5 0 6.2.4 12.5.8 14l.6 2.7h16c8.6 0 16.2-.2 16.8-.3.8-.2 1-5.2.7-18-.6-21-1.3-24.6-5.3-26.7-3.2-1.6-3.8-1.7-12.2-.4zm95.8-50.3c-2 .5-18.5 16-18.5 17.5 0 1.2 3.7 1 7.4-.6C558.8 69.2 573 56 573 54c0-1-2.8-1.2-6.5-.3zM12 177c-11 2.5-15 6.3-10 9 1.6 1 4.4.6 11.8-1 5.3-1.2 11-2.6 12.4-3.2 5.6-2 4-7-2-6.7-2 0-7.5 1-12 2zm558.8 6c-2.2 1.4-2.3 5.6-.2 6.4 1 .3 6.8.6 13.3.6 8.7 0 12-.4 13.7-1.6 2.6-1.8 3-5 .6-5.8-2.6-1-25.8-.6-27.6.5zM226 248.7c-1.6 1.5-7 14.6-7 17.5 0 1.3 7.4 1 9.3-.4 1-.7 2.8-4.5 4-8.3l3.2-8.8c.6-1.4 0-1.7-3.3-1.7-2.3 0-5 .7-6 1.7zM479.8 262c-2.5 1.5-2.2 3.6 1 9.5 2.2 4 3.2 5 5.8 5.3 2 .2 4-.4 5.5-1.7l2.6-2-3-5.6c-2.7-5.3-3.3-5.8-6.5-6-2-.2-4.2.2-5 .8zm-15 10.8l-4 1.7 5 8.5c6.3 10.2 7.8 12 10.3 12 2.6 0 8-2.8 8-4 0-.6-2-4-4.5-7.8l-6-9.5c-2-3-3.6-3.3-9-1z"/>
</svg>
